<?xml version="1.0" encoding="UTF-8"?>
<svg version="1.1" xmlns="http://www.w3.org/2000/svg" width="134" height="180">
<path d="M0 0 C44.22 0 88.44 0 134 0 C134 59.4 134 118.8 134 180 C89.78 180 45.56 180 0 180 C0 120.6 0 61.2 0 0 Z " fill="#F9F7F2" transform="translate(0,0)"/>
<path d="M0 0 C4.85633035 -0.07453636 9.71232268 -0.12878329 14.5690918 -0.16479492 C16.21889044 -0.17981806 17.86864958 -0.2002426 19.51831055 -0.22631836 C21.89902536 -0.26298899 24.27920908 -0.27979103 26.66015625 -0.29296875 C27.38960953 -0.30845261 28.11906281 -0.32393646 28.87062073 -0.33988953 C36.04232382 -0.34221038 41.76623914 1.91162139 47 7 C50.95991873 12.46195687 50.73286268 18.52915568 50 25 C48.46397558 31.00695264 45.59805052 34.96450537 40.87890625 38.90625 C38.62373488 40.21903167 36.55264552 40.53754716 34 41 C33.99413376 41.64986877 33.98826752 42.29973755 33.98222351 42.96929932 C33.91787854 49.7838446 33.83335674 56.59793542 33.73754883 63.41210938 C33.70446391 65.94915748 33.67638183 68.48627628 33.65356445 71.0234375 C33.61971515 74.68780414 33.56738435 78.35153236 33.51171875 82.015625 C33.50213387 83.69449799 33.50213387 83.69449799 33.49235535 85.4072876 C33.31630788 95.01461553 32.45106573 105.4105109 26 113 C20.4171229 118.28109996 14.67768181 120.34108889 7.11328125 120.30078125 C4.74311316 119.96343755 3.07215506 119.17406528 1 118 C3.67637079 117.1078764 5.54563495 116.85475436 8.3125 116.6875 C12.8257358 116.19661234 15.52979397 115.0666937 19 112 C23.42991989 106.02244784 24.12002385 100.40463899 24.16113281 93.14599609 C24.16609772 92.47708847 24.17106262 91.80818085 24.17617798 91.1190033 C24.19070826 88.92047071 24.19758342 86.72201008 24.203125 84.5234375 C24.20888051 82.99077351 24.21463819 81.45810953 24.22039795 79.92544556 C24.23087945 76.71949937 24.23674189 73.51357808 24.24023438 70.30761719 C24.24573736 66.1971949 24.26981532 62.08710082 24.29820633 57.97678185 C24.31680708 54.81467717 24.32203675 51.65265236 24.32357025 48.49049759 C24.32659912 46.97460749 24.33463559 45.45871888 24.34775543 43.94288254 C24.36477582 41.82673561 24.36294705 39.71140208 24.35644531 37.59521484 C24.36009094 36.39118011 24.36373657 35.18714539 24.36749268 33.94662476 C24.24648939 31.02084484 24.24648939 31.02084484 22.64569092 29.16201782 C20.55460479 27.68550767 18.40731481 26.84581331 16 26 C15.92402251 32.35368197 15.87143103 38.70724709 15.83520508 45.0612793 C15.82010556 47.22343321 15.79962429 49.38555643 15.77368164 51.54760742 C15.73734983 54.652909 15.72028538 57.75780614 15.70703125 60.86328125 C15.69154739 61.83211746 15.67606354 62.80095367 15.66011047 63.79914856 C15.65988388 64.6998558 15.65965729 65.60056305 15.65942383 66.52856445 C15.65276199 67.32132278 15.64610016 68.11408112 15.63923645 68.93086243 C16.09682073 71.55530943 16.95146333 72.34572367 19 74 C20.485 74.99 20.485 74.99 22 76 C14.74 76 7.48 76 0 76 C1.485 75.01 1.485 75.01 3 74 C5.80677307 71.75229727 6.88634148 70.66409284 7.50120544 67.07151794 C7.50137161 65.93473099 7.50153778 64.79794403 7.50170898 63.62670898 C7.51108994 62.33534531 7.52047089 61.04398163 7.53013611 59.71348572 C7.5196589 58.30768164 7.50829003 56.90188396 7.49609375 55.49609375 C7.49624875 54.05168078 7.49773797 52.60726739 7.50050354 51.16285706 C7.50188682 48.13906416 7.48934063 45.11574602 7.46655273 42.09204102 C7.43814217 38.21578056 7.44091291 34.34030725 7.45364285 30.4639883 C7.46059606 27.48282645 7.45281541 24.50184669 7.44038582 21.52070808 C7.43586958 20.09136719 7.43553604 18.66200677 7.43945122 17.23266411 C7.44236021 15.23637548 7.42370795 13.24009047 7.40405273 11.24389648 C7.39864975 10.10790512 7.39324677 8.97191376 7.38768005 7.80149841 C7.23407935 4.99704217 7.23407935 4.99704217 5.61146545 3.18397522 C3.82489856 1.87134954 2.02099334 0.90596253 0 0 Z " fill="#F6F2EB" transform="translate(30,26)"/>
<path d="M0 0 C4.85633035 -0.07453636 9.71232268 -0.12878329 14.5690918 -0.16479492 C16.21889044 -0.17981806 17.86864958 -0.2002426 19.51831055 -0.22631836 C21.89902536 -0.26298899 24.27920908 -0.27979103 26.66015625 -0.29296875 C27.38960953 -0.30845261 28.11906281 -0.32393646 28.87062073 -0.33988953 C36.04232382 -0.34221038 41.76623914 1.91162139 47 7 C50.95991873 12.46195687 50.73286268 18.52915568 50 25 C48.44975055 31.06258267 45.53341241 35.01857005 40.78125 39.00390625 C39 40 39 40 35 40 C34.6875 37.8125 34.6875 37.8125 35 35 C37.3125 32.1875 37.3125 32.1875 40 30 C40.99 30 41.98 30 43 30 C42.74320437 27.4562127 42.47007458 24.91594626 42.1875 22.375 C42.11724609 21.66214844 42.04699219 20.94929688 41.97460938 20.21484375 C41.28598612 14.210049 40.05897428 9.82069536 35.3671875 5.671875 C31.15452158 3.58020329 27.76392805 3.33648849 23.125 3.25 C22.34125 3.22035156 21.5575 3.19070312 20.75 3.16015625 C18.83387193 3.090054 16.91693463 3.04269342 15 3 C14.86625635 18.40521101 14.97553972 33.81003589 15.26345825 49.21292114 C15.29615558 51.07113467 15.32372241 52.92944556 15.34616089 54.78781128 C15.37933456 57.42151853 15.43144687 60.05421084 15.48828125 62.6875 C15.49787369 63.88113914 15.49787369 63.88113914 15.50765991 65.09889221 C15.57463538 69.24915203 15.57463538 69.24915203 17.34448242 72.89453125 C18.89582235 73.93043557 20.44788531 74.96525687 22 76 C14.74 76 7.48 76 0 76 C1.485 75.01 1.485 75.01 3 74 C5.80677307 71.75229727 6.88634148 70.66409284 7.50120544 67.07151794 C7.50137161 65.93473099 7.50153778 64.79794403 7.50170898 63.62670898 C7.51108994 62.33534531 7.52047089 61.04398163 7.53013611 59.71348572 C7.5196589 58.30768164 7.50829003 56.90188396 7.49609375 55.49609375 C7.49624875 54.05168078 7.49773797 52.60726739 7.50050354 51.16285706 C7.50188682 48.13906416 7.48934063 45.11574602 7.46655273 42.09204102 C7.43814217 38.21578056 7.44091291 34.34030725 7.45364285 30.4639883 C7.46059606 27.48282645 7.45281541 24.50184669 7.44038582 21.52070808 C7.43586958 20.09136719 7.43553604 18.66200677 7.43945122 17.23266411 C7.44236021 15.23637548 7.42370795 13.24009047 7.40405273 11.24389648 C7.39864975 10.10790512 7.39324677 8.97191376 7.38768005 7.80149841 C7.23407935 4.99704217 7.23407935 4.99704217 5.61146545 3.18397522 C3.82489856 1.87134954 2.02099334 0.90596253 0 0 Z " fill="#9E6C3E" transform="translate(30,26)"/>
<path d="M0 0 C7.59 0 15.18 0 23 0 C21.02 0.99 21.02 0.99 19 2 C17.17757861 3.13572314 17.17757861 3.13572314 16 5 C15.55160679 8.059904 15.55160679 8.059904 15.63110352 11.60766602 C15.62733704 12.27479111 15.62357056 12.9419162 15.61968994 13.6292572 C15.61325625 15.0779079 15.6135887 16.52660081 15.61987495 17.97525215 C15.62899486 20.27626204 15.61874865 22.57645844 15.60325623 24.87742615 C15.56320262 31.41932887 15.56194055 37.96116888 15.56420898 44.50317383 C15.56426041 48.50740112 15.54492281 52.51119459 15.51487541 56.51530266 C15.50413879 58.76762426 15.51613242 61.01908467 15.52870178 63.27137756 C15.50804761 71.78953448 15.2333714 80.21626991 9.32276917 86.89527893 C3.72839841 92.17132561 -2.27248604 94.34135443 -9.88671875 94.30078125 C-12.25688684 93.96343755 -13.92784494 93.17406528 -16 92 C-13.32362921 91.1078764 -11.45436505 90.85475436 -8.6875 90.6875 C-4.1742642 90.19661234 -1.47020603 89.0666937 2 86 C6.42991989 80.02244784 7.12002385 74.40463899 7.16113281 67.14599609 C7.16609772 66.47708847 7.17106262 65.80818085 7.17617798 65.1190033 C7.19070826 62.92047071 7.19758342 60.72201008 7.203125 58.5234375 C7.20888051 56.99077351 7.21463819 55.45810953 7.22039795 53.92544556 C7.23087945 50.71949937 7.23674189 47.51357808 7.24023438 44.30761719 C7.24573736 40.1971949 7.26981532 36.08710082 7.29820633 31.97678185 C7.31680708 28.81467717 7.32203675 25.65265236 7.32357025 22.49049759 C7.32659912 20.97460749 7.33463559 19.45871888 7.34775543 17.94288254 C7.36477582 15.82673561 7.36294705 13.71140208 7.35644531 11.59521484 C7.36009094 10.39118011 7.36373657 9.18714539 7.36749268 7.94662476 C7.24176799 5.04035825 7.24176799 5.04035825 5.72772217 3.21279907 C3.70461868 1.72909989 3.70461868 1.72909989 0 0 Z " fill="#9D6B3D" transform="translate(47,52)"/>
<path d="M0 0 C1.10611998 1.10611998 2.2118519 2.2126291 3.31640625 3.3203125 C4.56917776 4.57017734 5.82795574 5.81402751 7.08984375 7.0546875 C11.27096517 11.1857784 15.2872148 15.38126647 19.125 19.83203125 C31.337011 33.95216897 42.11266728 45.30041936 61 49 C56.37179685 51.64166846 52.21565963 51.61272792 47 51 C32.1222787 46.76792092 21.8688795 35.28117989 12 24 C10.37691059 22.20660232 8.75194417 20.41490142 7.125 18.625 C5.73566786 17.09623667 4.35915226 15.55565621 3 14 C2.42378906 13.35289063 1.84757812 12.70578125 1.25390625 12.0390625 C-0.34071911 9.44593341 -0.30660288 7.76727294 -0.1875 4.75 C-0.16042969 3.85796875 -0.13335937 2.9659375 -0.10546875 2.046875 C-0.07066406 1.37140625 -0.03585938 0.6959375 0 0 Z " fill="#9F6D40" transform="translate(65,71)"/>
<path d="M0 0 C3.01305957 0.38878188 4.39685311 1.26456874 7 3 C6.125 7.875 6.125 7.875 5 9 C2.5625 9.1875 2.5625 9.1875 0 9 C-2 7 -2 7 -2.25 4.5 C-2 2 -2 2 0 0 Z " fill="#CBB5A8" transform="translate(41,151)"/>
<path d="M0 0 C0.33 0 0.66 0 1 0 C1.3125 2.8125 1.3125 2.8125 1 6 C-1.375 7.75 -1.375 7.75 -4 9 C-6.35953094 11.35953094 -6.49141413 12.77895617 -7 16 C-6.34 16.33 -5.68 16.66 -5 17 C-5.99 17 -6.98 17 -8 17 C-8.24915939 15.23186888 -8.47366632 13.46025018 -8.6875 11.6875 C-8.81511719 10.70136719 -8.94273438 9.71523438 -9.07421875 8.69921875 C-9 6 -9 6 -7.68359375 4.1796875 C-5.53896488 2.67695451 -3.55062805 2.46985254 -1 2 C-0.67 1.34 -0.34 0.68 0 0 Z " fill="#EFE7DD" transform="translate(72,50)"/>
<path d="M0 0 C4.55555556 0.55555556 4.55555556 0.55555556 6 2 C6.1875 4.4375 6.1875 4.4375 6 7 C5.34 7.66 4.68 8.32 4 9 C-0.55555556 8.44444444 -0.55555556 8.44444444 -2 7 C-2.1875 4.5625 -2.1875 4.5625 -2 2 C-1.34 1.34 -0.68 0.68 0 0 Z " fill="#A67A64" transform="translate(61,151)"/>
<path d="M0 0 C3.53571429 0.53571429 3.53571429 0.53571429 5 2 C5.04080783 3.99958364 5.04254356 6.00045254 5 8 C2.625 8.625 2.625 8.625 0 9 C-2 7 -2 7 -2.25 4.5 C-2 2 -2 2 0 0 Z " fill="#BC9981" transform="translate(72,151)"/>
<path d="M0 0 C0.66 0 1.32 0 2 0 C2 0.99 2 1.98 2 3 C2.99 3 3.98 3 5 3 C5 2.01 5 1.02 5 0 C5.66 0 6.32 0 7 0 C7 2.97 7 5.94 7 9 C6.34 9 5.68 9 5 9 C5 7.68 5 6.36 5 5 C4.01 5 3.02 5 2 5 C2 6.32 2 7.64 2 9 C1.34 9 0.68 9 0 9 C0 6.03 0 3.06 0 0 Z " fill="#AC735F" transform="translate(49,151)"/>
<path d="M0 0 C1.98 0.495 1.98 0.495 4 1 C3.67 1.66 3.34 2.32 3 3 C2.34 2.67 1.68 2.34 1 2 C1 2.66 1 3.32 1 4 C2.32 4.33 3.64 4.66 5 5 C4.67 6.32 4.34 7.64 4 9 C2.35 8.67 0.7 8.34 -1 8 C-0.67 7.34 -0.34 6.68 0 6 C0.66 6 1.32 6 2 6 C1.01 5.34 0.02 4.68 -1 4 C-0.67 2.68 -0.34 1.36 0 0 Z " fill="#A2765E" transform="translate(31,151)"/>
<path d="M0 0 C0.66 0 1.32 0 2 0 C2 2.31 2 4.62 2 7 C3.32 7 4.64 7 6 7 C6 7.66 6 8.32 6 9 C4.02 9 2.04 9 0 9 C0 6.03 0 3.06 0 0 Z " fill="#B68456" transform="translate(80,151)"/>
<path d="M0 0 C3.96 0 7.92 0 12 0 C12.33 0.99 12.66 1.98 13 3 C11.58376784 3.05447047 10.16691809 3.09300508 8.75 3.125 C7.96109375 3.14820313 7.1721875 3.17140625 6.359375 3.1953125 C3.79268059 2.9828378 2.2083933 2.28654105 0 1 C0 0.67 0 0.34 0 0 Z " fill="#AB7F57" transform="translate(31,143)"/>
<path d="M0 0 C1.32 0.33 2.64 0.66 4 1 C3.67 2.32 3.34 3.64 3 5 C2.01 5 1.02 5 0 5 C0 3.35 0 1.7 0 0 Z " fill="#EAE8DD" transform="translate(61,153)"/>
</svg>
